# xmcd
#
# Track frame offsets: 
#        150
#        10813
#        28065
#        39176
#        55146
#        66180
#        77763
#        87850
#        99944
#        109154
#        118378
#        129293
#        145441
#        161624
#        174196
#        184193
#        195513
#
# Disc length: 2830 seconds
#
# Revision: 0
# Processed by: cddbd v1.5.1PL2 Copyright (c) Steve Scherf et al.
# Submitted via: ExactAudioCopy v0.95b3
#
DISCID=da0b0c11
DTITLE=Blind Boys Of Alabama - Walk With Me Dear Lord
DYEAR=2005
DGENRE=Gospel
TTITLE0=Walk With Me
TTITLE1=Precious Lord
TTITLE2=I Can See Everybody's Mother (But I Can't See Mine)
TTITLE3=How Far Am I From Canaan
TTITLE4=You Don't Know
TTITLE5=Just A Closer Walk With Thee
TTITLE6=Danny Boy
TTITLE7=All Over M
TTITLE8=My Robe Will Fit Me
TTITLE9=Old Time Religion
TTITLE10=I'm A Rolling
TTITLE11=He Looked Beyond My Faults
TTITLE12=Let's Have Church
TTITLE13=You'll Never Walk Alone
TTITLE14=I Got A Home In That Rock
TTITLE15=Somebody's Mother
TTITLE16=Precious Lord (Alternate Version)
EXTD=
EXTT0=
EXTT1=
EXTT2=
EXTT3=
EXTT4=
EXTT5=
EXTT6=
EXTT7=
EXTT8=
EXTT9=
EXTT10=
EXTT11=
EXTT12=
EXTT13=
EXTT14=
EXTT15=
EXTT16=
PLAYORDER=
